<?xml version="1.0" encoding="utf-8"?>
<!-- Generator: Adobe Illustrator 26.0.2, SVG Export Plug-In . SVG Version: 6.00 Build 0)  -->
<svg version="1.1" id="Layer_1" xmlns="http://www.w3.org/2000/svg" xmlns:xlink="http://www.w3.org/1999/xlink" x="0px" y="0px"
	 viewBox="0 0 381 165.8" style="enable-background:new 0 0 381 165.8;" xml:space="preserve">
<style type="text/css">
	.st0{clip-path:url(#SVGID_00000101094058227957539260000012948990495850922391_);}
	.st1{fill:#CCCCCC;}
	.st2{fill:#FFFFFF;}
	.st3{fill:none;stroke:#808080;stroke-miterlimit:10;}
	.st4{fill:#E6E6E6;}
	.st5{fill:#4D4D4D;}
	.st6{fill:#2D3985;}
	.st7{fill:#2C3987;}
	.st8{fill:#00A695;}
	.st9{fill:none;stroke:#2D3985;stroke-width:3;stroke-miterlimit:10;}
</style>
<g>
	<g>
		<path class="st6" d="M57.9,50.7c-2.3-0.5-4.7-0.9-7.2-1.2c-2.5-0.3-5.2-0.4-8.1-0.4c-6.1,0-11.7,0.7-16.9,2
			c-5.1,1.3-9.6,3.3-13.3,5.9c-3.7,2.6-6.6,5.9-8.7,9.9c-2.1,3.9-3.1,8.6-3.1,13.8c0,5.3,1,9.9,3.1,13.8c2.1,3.9,5,7.2,8.7,9.9
			c3.7,2.6,8.1,4.6,13.3,5.9c5.1,1.3,10.8,2,16.9,2c2.9,0,5.6-0.1,8.1-0.4c2.5-0.3,4.9-0.6,7.2-1.2c2.3-0.5,4.5-1.1,6.6-1.8
			c2.1-0.7,4.2-1.5,6.3-2.4V92c-1.7,0.9-3.4,1.8-5.2,2.7c-1.8,0.9-3.9,1.7-6.1,2.4c-2.2,0.7-4.6,1.3-7.3,1.7c-2.6,0.4-5.6,0.6-9,0.6
			c-3.4,0-6.4-0.2-9-0.7c-2.6-0.5-4.9-1.1-6.8-2c-2-0.8-3.6-1.8-4.9-3c-1.3-1.2-2.4-2.4-3.2-3.8c-0.8-1.4-1.4-2.9-1.7-4.4
			c-0.3-1.6-0.5-3.1-0.5-4.7c0-2.4,0.4-4.8,1.2-7c0.8-2.3,2.2-4.3,4.2-6c2-1.7,4.7-3.1,8.1-4.2c3.4-1,7.6-1.6,12.7-1.6
			c3.3,0,6.3,0.2,9,0.7c2.6,0.5,5.1,1,7.3,1.7c2.2,0.7,4.2,1.5,6.1,2.4c1.8,0.9,3.6,1.8,5.2,2.7V54.9c-2.1-0.9-4.2-1.7-6.3-2.4
			C62.4,51.8,60.2,51.2,57.9,50.7z"/>
		<path class="st6" d="M142.4,84.7c1.6-0.9,3-2.1,4.2-3.4c1.2-1.4,2.2-3,2.9-4.9c0.7-1.9,1.1-4.1,1.1-6.6c0-2.9-0.4-5.5-1.3-7.8
			c-0.9-2.3-2.2-4.3-4.1-6c-1.9-1.7-4.4-2.9-7.4-3.8c-3-0.9-6.7-1.4-11.1-1.4H85.9v60h16.2V88.6h17.7l18.2,22.1h19L137.3,87
			C139.1,86.4,140.8,85.6,142.4,84.7z M133.7,72.6c-0.3,0.8-0.8,1.5-1.6,2c-0.8,0.5-1.8,0.9-3,1.1c-1.3,0.2-2.8,0.3-4.7,0.3h-22.2
			V63.2h22.2c1.9,0,3.5,0.1,4.7,0.3c1.3,0.2,2.3,0.6,3,1.1c0.8,0.5,1.3,1.2,1.6,2c0.3,0.8,0.5,1.8,0.5,3
			C134.2,70.8,134,71.8,133.7,72.6z"/>
		<polygon class="st6" points="185.2,86.2 227,86.2 227,73.4 185.2,73.4 185.2,63.5 229.3,63.5 229.3,50.7 168.6,50.7 168.6,110.7 
			229.9,110.7 229.9,97.9 185.2,97.9 		"/>
		<path class="st6" d="M300.9,82.5c-1.5-1.3-3.3-2.5-5.3-3.5c-2-1-4.1-1.9-6.4-2.6c-2.3-0.8-4.6-1.4-7-2c-2.4-0.6-4.7-1.1-7-1.6
			c-2.3-0.5-4.4-0.9-6.4-1.4c-2-0.5-3.8-0.9-5.3-1.4c-1.5-0.5-2.7-1.1-3.6-1.7c-0.9-0.7-1.3-1.4-1.3-2.3c0-0.3,0.1-0.6,0.2-0.9
			c0.1-0.3,0.3-0.6,0.7-1c0.3-0.3,0.9-0.6,1.5-0.9c0.7-0.3,1.5-0.6,2.7-0.8c1.1-0.2,2.5-0.4,4.1-0.6c1.6-0.1,3.6-0.2,6-0.2
			c2.9,0,5.7,0.2,8.5,0.6c2.8,0.4,5.3,0.9,7.7,1.6c2.4,0.6,4.5,1.3,6.3,2c1.9,0.7,3.4,1.3,4.5,1.9V53.7c-1.9-0.6-4-1.2-6.2-1.7
			c-2.2-0.6-4.5-1-6.9-1.5c-2.4-0.4-4.8-0.7-7.3-1c-2.5-0.2-4.9-0.3-7.2-0.3c-2.1,0-4.4,0.1-6.7,0.3c-2.4,0.2-4.7,0.5-7,1
			c-2.3,0.5-4.5,1.1-6.6,2c-2.1,0.8-3.9,1.9-5.5,3.3c-1.6,1.4-2.8,3-3.8,4.9c-0.9,1.9-1.4,4.2-1.4,6.9c0,2.2,0.4,4.2,1.3,5.9
			c0.9,1.7,2.1,3.2,3.6,4.5c1.5,1.3,3.3,2.4,5.3,3.4c2,0.9,4.1,1.8,6.4,2.5c2.3,0.7,4.6,1.3,7,1.9c2.4,0.5,4.7,1,7,1.5
			c2.3,0.5,4.4,0.9,6.4,1.4c2,0.5,3.8,0.9,5.3,1.5c1.5,0.5,2.7,1.2,3.6,1.9c0.9,0.7,1.3,1.6,1.3,2.5c0,0.6-0.2,1.3-0.7,1.9
			c-0.4,0.7-1.3,1.3-2.5,1.9c-1.2,0.6-2.9,1-5.1,1.4c-2.2,0.4-5,0.5-8.4,0.5c-5.8,0-11.3-0.6-16.4-1.9c-5.1-1.3-9.7-3-13.6-5.2v14.3
			c3.9,1.5,8.3,2.7,13.4,3.6c5.1,1,10.5,1.5,16.5,1.5c2.3,0,4.7-0.1,7.2-0.2c2.5-0.1,5-0.5,7.5-0.9c2.5-0.5,4.8-1.1,7.1-2
			c2.2-0.9,4.2-2,5.9-3.4c1.7-1.4,3.1-3.2,4.1-5.2c1-2.1,1.5-4.5,1.5-7.4c0-2.2-0.4-4.2-1.3-6C303.6,85.4,302.4,83.8,300.9,82.5z"/>
		<polygon class="st6" points="313.1,50.7 313.1,63.7 338.6,63.7 338.6,110.7 354.8,110.7 354.8,63.7 380.3,63.7 380.3,50.7 		"/>
	</g>
	<polygon class="st8" points="380.3,37.6 313.1,37.6 380.3,0.3 	"/>
	<g>
		<path class="st6" d="M212.7,132.4h-7.1c-1.5,0-2.4,0.8-2.4,2.4v20.8c0,1.5,0.8,2.4,2.4,2.4h7.1c8,0,13.4-5.3,13.4-12.8
			C226.1,137.7,220.7,132.4,212.7,132.4z M212.7,154h-5v-17.7h5c5.7,0,8.8,3.9,8.8,8.9C221.5,150,218.2,154,212.7,154z"/>
		<path class="st6" d="M240,130.8c-1.3,0-2.5,1.1-2.5,2.5s1.2,2.5,2.5,2.5c1.4,0,2.5-1.1,2.5-2.5S241.4,130.8,240,130.8z"/>
		<path class="st6" d="M240,139.2c-1.1,0-2,0.9-2,2v14.9c0,1.1,0.9,2,2,2c1.1,0,2-0.9,2-2v-14.9C242,140.1,241.1,139.2,240,139.2z"
			/>
		<path class="st6" d="M270,139.2c-1.1,0-2,0.9-2,2v0.8c-1.5-2-3.6-3-6-3c-4.8,0-8.2,3.5-8.2,9.5c0,6.1,3.5,9.5,8.2,9.5
			c2.4,0,4.5-1.2,6-3.1v2.2c0,3.8-2.8,5-5.5,5c-1.8,0-3.4-0.4-4.8-1.3c-0.3-0.2-0.6-0.3-1-0.3c-0.9,0-1.7,0.8-1.7,1.7
			c0,0.6,0.3,1.1,0.7,1.4c2,1.4,4.1,1.9,6.7,1.9c4.6,0,9.5-1.8,9.5-8.5v-15.8C272,140.1,271,139.2,270,139.2z M267.9,151.9
			c-0.9,1.4-2.9,2.5-4.8,2.5c-3.2,0-5.2-2.4-5.2-6c0-3.6,2-6,5.2-6c1.9,0,3.9,1.1,4.8,2.5V151.9z"/>
		<path class="st6" d="M286.9,139.2c-1.1,0-2,0.9-2,2v14.9c0,1.1,0.9,2,2,2c1.1,0,2-0.9,2-2v-14.9
			C288.9,140.1,288,139.2,286.9,139.2z"/>
		<path class="st6" d="M286.9,130.8c-1.3,0-2.5,1.1-2.5,2.5s1.2,2.5,2.5,2.5c1.4,0,2.5-1.1,2.5-2.5S288.2,130.8,286.9,130.8z"/>
		<path class="st6" d="M309.4,154.7c-0.3,0-0.5,0.1-1,0.1c-1.2,0-1.8-0.9-1.8-2.2V143h2.2c1,0,1.8-0.8,1.8-1.8c0-1-0.8-1.8-1.8-1.8
			h-2.2v-3.3c0-1.1-0.9-2-2-2c-1.1,0-2,0.9-2,2v3.3h-1.5c-1,0-1.8,0.8-1.8,1.8c0,1,0.8,1.8,1.8,1.8h1.5v10.7c0,3.1,1.7,4.8,4.8,4.8
			c1.1,0,2-0.2,2.6-0.5c0.7-0.2,1.1-0.8,1.1-1.5C311.1,155.5,310.4,154.7,309.4,154.7z"/>
		<path class="st6" d="M330,139c-5.5,0-9.4,4.3-9.4,9.7c0,5.9,4.1,9.8,9.7,9.8c2.3,0,4.6-0.6,6.4-1.8c0.4-0.3,0.7-0.8,0.7-1.3
			c0-0.9-0.7-1.6-1.6-1.6c-0.3,0-0.7,0.1-0.9,0.2c-1.3,0.8-2.9,1.2-4.2,1.2c-3.5,0-5.6-2.3-5.9-5.1h11.9c1.5,0,2.4-0.7,2.4-1.9
			C339.1,143.2,335.5,139,330,139z M324.8,147.2c0.2-2.3,1.8-4.9,5.2-4.9c3.6,0,5.1,2.7,5.2,4.9H324.8z"/>
		<path class="st6" d="M352.8,132.1c-1.1,0-2,0.9-2,2v22c0,1.1,0.9,2,2,2c1.1,0,2-0.9,2-2v-22C354.8,133,353.9,132.1,352.8,132.1z"
			/>
	</g>
</g>
</svg>
